<svg width="273" height="116" viewBox="0 0 273 116" fill="none" xmlns="http://www.w3.org/2000/svg">
<g filter="url(#filter0_d)">
<rect x="2" y="1" width="263" height="106" rx="15" fill="#303030"/>
</g>
<path d="M84.5219 28.084C83.5513 28.084 82.6739 27.8693 81.8899 27.44C81.1153 27.0107 80.5039 26.418 80.0559 25.662C79.6173 24.8967 79.3979 24.0427 79.3979 23.1C79.3979 22.1573 79.6173 21.308 80.0559 20.552C80.5039 19.7867 81.1199 19.1893 81.9039 18.76C82.6879 18.3307 83.5653 18.116 84.5359 18.116C85.2639 18.116 85.9359 18.2373 86.5519 18.48C87.1679 18.7227 87.6906 19.0773 88.1199 19.544L87.4619 20.202C86.6966 19.4273 85.7306 19.04 84.5639 19.04C83.7893 19.04 83.0846 19.2173 82.4499 19.572C81.8153 19.9267 81.3159 20.412 80.9519 21.028C80.5973 21.644 80.4199 22.3347 80.4199 23.1C80.4199 23.8653 80.5973 24.556 80.9519 25.172C81.3159 25.788 81.8153 26.2733 82.4499 26.628C83.0846 26.9827 83.7893 27.16 84.5639 27.16C85.7399 27.16 86.7059 26.768 87.4619 25.984L88.1199 26.642C87.6906 27.1087 87.1633 27.468 86.5379 27.72C85.9219 27.9627 85.2499 28.084 84.5219 28.084ZM91.0704 22.078C91.3038 21.5833 91.6491 21.21 92.1064 20.958C92.5731 20.706 93.1471 20.58 93.8284 20.58V21.546L93.5904 21.532C92.8158 21.532 92.2091 21.77 91.7704 22.246C91.3318 22.722 91.1124 23.3893 91.1124 24.248V28H90.1184V20.636H91.0704V22.078ZM98.7098 27.188C99.1672 27.188 99.5872 27.1087 99.9698 26.95C100.362 26.782 100.693 26.5393 100.964 26.222L101.524 26.866C101.197 27.258 100.791 27.5567 100.306 27.762C99.8205 27.9673 99.2838 28.07 98.6958 28.07C97.9398 28.07 97.2678 27.9113 96.6798 27.594C96.0918 27.2673 95.6345 26.8193 95.3078 26.25C94.9812 25.6807 94.8178 25.0367 94.8178 24.318C94.8178 23.5993 94.9718 22.9553 95.2798 22.386C95.5972 21.8167 96.0312 21.3733 96.5818 21.056C97.1325 20.7387 97.7578 20.58 98.4578 20.58C99.1112 20.58 99.6992 20.7293 100.222 21.028C100.754 21.3267 101.174 21.742 101.482 22.274C101.799 22.806 101.967 23.4127 101.986 24.094L95.9378 25.27C96.1245 25.8673 96.4605 26.3387 96.9458 26.684C97.4405 27.02 98.0285 27.188 98.7098 27.188ZM98.4578 21.434C97.9445 21.434 97.4825 21.5553 97.0718 21.798C96.6705 22.0313 96.3532 22.3627 96.1198 22.792C95.8958 23.212 95.7838 23.6973 95.7838 24.248C95.7838 24.388 95.7885 24.4907 95.7978 24.556L100.992 23.548C100.88 22.932 100.595 22.428 100.138 22.036C99.6805 21.6347 99.1205 21.434 98.4578 21.434ZM110.729 20.636V28H109.777V26.544C109.478 27.0387 109.082 27.4167 108.587 27.678C108.102 27.9393 107.551 28.07 106.935 28.07C106.244 28.07 105.619 27.9113 105.059 27.594C104.499 27.2767 104.06 26.8333 103.743 26.264C103.426 25.6947 103.267 25.046 103.267 24.318C103.267 23.59 103.426 22.9413 103.743 22.372C104.06 21.8027 104.499 21.364 105.059 21.056C105.619 20.7387 106.244 20.58 106.935 20.58C107.532 20.58 108.069 20.706 108.545 20.958C109.03 21.2007 109.427 21.56 109.735 22.036V20.636H110.729ZM107.019 27.188C107.532 27.188 107.994 27.0713 108.405 26.838C108.825 26.5953 109.152 26.2547 109.385 25.816C109.628 25.3773 109.749 24.878 109.749 24.318C109.749 23.758 109.628 23.2587 109.385 22.82C109.152 22.3813 108.825 22.0453 108.405 21.812C107.994 21.5693 107.532 21.448 107.019 21.448C106.496 21.448 106.025 21.5693 105.605 21.812C105.194 22.0453 104.868 22.3813 104.625 22.82C104.392 23.2587 104.275 23.758 104.275 24.318C104.275 24.878 104.392 25.3773 104.625 25.816C104.868 26.2547 105.194 26.5953 105.605 26.838C106.025 27.0713 106.496 27.188 107.019 27.188ZM117.123 27.552C116.937 27.72 116.708 27.8507 116.437 27.944C116.167 28.028 115.882 28.07 115.583 28.07C114.893 28.07 114.361 27.8833 113.987 27.51C113.614 27.1367 113.427 26.6093 113.427 25.928V19.026H114.421V20.636H116.647V21.476H114.421V25.872C114.421 26.3107 114.529 26.6467 114.743 26.88C114.958 27.104 115.271 27.216 115.681 27.216C116.129 27.216 116.493 27.09 116.773 26.838L117.123 27.552ZM121.815 27.188C122.273 27.188 122.693 27.1087 123.075 26.95C123.467 26.782 123.799 26.5393 124.069 26.222L124.629 26.866C124.303 27.258 123.897 27.5567 123.411 27.762C122.926 27.9673 122.389 28.07 121.801 28.07C121.045 28.07 120.373 27.9113 119.785 27.594C119.197 27.2673 118.74 26.8193 118.413 26.25C118.087 25.6807 117.923 25.0367 117.923 24.318C117.923 23.5993 118.077 22.9553 118.385 22.386C118.703 21.8167 119.137 21.3733 119.687 21.056C120.238 20.7387 120.863 20.58 121.563 20.58C122.217 20.58 122.805 20.7293 123.327 21.028C123.859 21.3267 124.279 21.742 124.587 22.274C124.905 22.806 125.073 23.4127 125.091 24.094L119.043 25.27C119.23 25.8673 119.566 26.3387 120.051 26.684C120.546 27.02 121.134 27.188 121.815 27.188ZM121.563 21.434C121.05 21.434 120.588 21.5553 120.177 21.798C119.776 22.0313 119.459 22.3627 119.225 22.792C119.001 23.212 118.889 23.6973 118.889 24.248C118.889 24.388 118.894 24.4907 118.903 24.556L124.097 23.548C123.985 22.932 123.701 22.428 123.243 22.036C122.786 21.6347 122.226 21.434 121.563 21.434ZM137.499 17.612V28H136.547V26.544C136.248 27.0387 135.851 27.4167 135.357 27.678C134.871 27.9393 134.321 28.07 133.705 28.07C133.014 28.07 132.389 27.9113 131.829 27.594C131.269 27.2767 130.83 26.8333 130.513 26.264C130.195 25.6947 130.037 25.046 130.037 24.318C130.037 23.59 130.195 22.9413 130.513 22.372C130.83 21.8027 131.269 21.364 131.829 21.056C132.389 20.7387 133.014 20.58 133.705 20.58C134.302 20.58 134.839 20.706 135.315 20.958C135.8 21.2007 136.197 21.56 136.505 22.036V17.612H137.499ZM133.789 27.188C134.302 27.188 134.764 27.0713 135.175 26.838C135.595 26.5953 135.921 26.2547 136.155 25.816C136.397 25.3773 136.519 24.878 136.519 24.318C136.519 23.758 136.397 23.2587 136.155 22.82C135.921 22.3813 135.595 22.0453 135.175 21.812C134.764 21.5693 134.302 21.448 133.789 21.448C133.266 21.448 132.795 21.5693 132.375 21.812C131.964 22.0453 131.637 22.3813 131.395 22.82C131.161 23.2587 131.045 23.758 131.045 24.318C131.045 24.878 131.161 25.3773 131.395 25.816C131.637 26.2547 131.964 26.5953 132.375 26.838C132.795 27.0713 133.266 27.188 133.789 27.188ZM143.277 28.07C142.568 28.07 141.928 27.9113 141.359 27.594C140.79 27.2673 140.342 26.8193 140.015 26.25C139.688 25.6807 139.525 25.0367 139.525 24.318C139.525 23.5993 139.688 22.9553 140.015 22.386C140.342 21.8167 140.79 21.3733 141.359 21.056C141.928 20.7387 142.568 20.58 143.277 20.58C143.986 20.58 144.626 20.7387 145.195 21.056C145.764 21.3733 146.208 21.8167 146.525 22.386C146.852 22.9553 147.015 23.5993 147.015 24.318C147.015 25.0367 146.852 25.6807 146.525 26.25C146.208 26.8193 145.764 27.2673 145.195 27.594C144.626 27.9113 143.986 28.07 143.277 28.07ZM143.277 27.188C143.8 27.188 144.266 27.0713 144.677 26.838C145.097 26.5953 145.424 26.2547 145.657 25.816C145.89 25.3773 146.007 24.878 146.007 24.318C146.007 23.758 145.89 23.2587 145.657 22.82C145.424 22.3813 145.097 22.0453 144.677 21.812C144.266 21.5693 143.8 21.448 143.277 21.448C142.754 21.448 142.283 21.5693 141.863 21.812C141.452 22.0453 141.126 22.3813 140.883 22.82C140.65 23.2587 140.533 23.758 140.533 24.318C140.533 24.878 140.65 25.3773 140.883 25.816C141.126 26.2547 141.452 26.5953 141.863 26.838C142.283 27.0713 142.754 27.188 143.277 27.188ZM152.096 28.07C151.368 28.07 150.715 27.9113 150.136 27.594C149.567 27.2767 149.119 26.8333 148.792 26.264C148.466 25.6853 148.302 25.0367 148.302 24.318C148.302 23.5993 148.466 22.9553 148.792 22.386C149.119 21.8167 149.567 21.3733 150.136 21.056C150.715 20.7387 151.368 20.58 152.096 20.58C152.731 20.58 153.296 20.706 153.79 20.958C154.294 21.2007 154.691 21.56 154.98 22.036L154.238 22.54C153.996 22.176 153.688 21.9053 153.314 21.728C152.941 21.5413 152.535 21.448 152.096 21.448C151.564 21.448 151.084 21.5693 150.654 21.812C150.234 22.0453 149.903 22.3813 149.66 22.82C149.427 23.2587 149.31 23.758 149.31 24.318C149.31 24.8873 149.427 25.3913 149.66 25.83C149.903 26.2593 150.234 26.5953 150.654 26.838C151.084 27.0713 151.564 27.188 152.096 27.188C152.535 27.188 152.941 27.0993 153.314 26.922C153.688 26.7447 153.996 26.474 154.238 26.11L154.98 26.614C154.691 27.09 154.294 27.454 153.79 27.706C153.286 27.9487 152.722 28.07 152.096 28.07ZM159.553 24.304L157.818 25.9V28H156.824V17.612H157.818V24.654L162.214 20.636H163.446L160.296 23.646L163.74 28H162.522L159.553 24.304ZM169.026 20.58C169.716 20.58 170.342 20.7387 170.902 21.056C171.462 21.364 171.9 21.8027 172.218 22.372C172.535 22.9413 172.694 23.59 172.694 24.318C172.694 25.046 172.535 25.6947 172.218 26.264C171.9 26.8333 171.462 27.2767 170.902 27.594C170.342 27.9113 169.716 28.07 169.026 28.07C168.41 28.07 167.854 27.9393 167.36 27.678C166.874 27.4167 166.482 27.0387 166.184 26.544V28H165.232V17.612H166.226V22.036C166.534 21.56 166.926 21.2007 167.402 20.958C167.887 20.706 168.428 20.58 169.026 20.58ZM168.956 27.188C169.469 27.188 169.936 27.0713 170.356 26.838C170.776 26.5953 171.102 26.2547 171.336 25.816C171.578 25.3773 171.7 24.878 171.7 24.318C171.7 23.758 171.578 23.2587 171.336 22.82C171.102 22.3813 170.776 22.0453 170.356 21.812C169.936 21.5693 169.469 21.448 168.956 21.448C168.433 21.448 167.962 21.5693 167.542 21.812C167.131 22.0453 166.804 22.3813 166.562 22.82C166.328 23.2587 166.212 23.758 166.212 24.318C166.212 24.878 166.328 25.3773 166.562 25.816C166.804 26.2547 167.131 26.5953 167.542 26.838C167.962 27.0713 168.433 27.188 168.956 27.188ZM177.73 28.07C177.021 28.07 176.381 27.9113 175.812 27.594C175.243 27.2673 174.795 26.8193 174.468 26.25C174.141 25.6807 173.978 25.0367 173.978 24.318C173.978 23.5993 174.141 22.9553 174.468 22.386C174.795 21.8167 175.243 21.3733 175.812 21.056C176.381 20.7387 177.021 20.58 177.73 20.58C178.439 20.58 179.079 20.7387 179.648 21.056C180.217 21.3733 180.661 21.8167 180.978 22.386C181.305 22.9553 181.468 23.5993 181.468 24.318C181.468 25.0367 181.305 25.6807 180.978 26.25C180.661 26.8193 180.217 27.2673 179.648 27.594C179.079 27.9113 178.439 28.07 177.73 28.07ZM177.73 27.188C178.253 27.188 178.719 27.0713 179.13 26.838C179.55 26.5953 179.877 26.2547 180.11 25.816C180.343 25.3773 180.46 24.878 180.46 24.318C180.46 23.758 180.343 23.2587 180.11 22.82C179.877 22.3813 179.55 22.0453 179.13 21.812C178.719 21.5693 178.253 21.448 177.73 21.448C177.207 21.448 176.736 21.5693 176.316 21.812C175.905 22.0453 175.579 22.3813 175.336 22.82C175.103 23.2587 174.986 23.758 174.986 24.318C174.986 24.878 175.103 25.3773 175.336 25.816C175.579 26.2547 175.905 26.5953 176.316 26.838C176.736 27.0713 177.207 27.188 177.73 27.188ZM187.928 28L185.59 24.92L183.238 28H182.118L185.03 24.22L182.258 20.636H183.378L185.59 23.52L187.802 20.636H188.894L186.122 24.22L189.062 28H187.928Z" fill="white"/>
<rect x="22.5" y="40.5" width="222" height="25" rx="12.5" fill="white" stroke="#BDBDBD"/>
<g clip-path="url(#clip0)">
<path d="M35.5506 53.4705L31.3874 57.1891C30.8594 57.6603 30.5688 58.2872 30.5688 58.954C30.5688 59.6211 30.8598 60.2478 31.3875 60.719C31.9152 61.1902 32.6171 61.45 33.3634 61.4502H33.3637C34.1101 61.4502 34.8117 61.1904 35.3393 60.719L39.5027 57.0003C40.3595 56.235 40.5629 55.0723 40.0262 54.1179L39.1122 54.9344C39.2258 55.4116 39.0615 55.9128 38.6736 56.2593L34.4056 60.0711L34.4026 60.0688C34.099 60.3056 33.7156 60.4348 33.3119 60.4348C32.8805 60.4348 32.4767 60.2862 32.1743 60.0163C31.8673 59.7423 31.7014 59.3763 31.7057 58.9858C31.7098 58.6303 31.8546 58.2932 32.116 58.0256L32.1136 58.0236L32.1721 57.9709C32.1798 57.9636 32.1878 57.9562 32.1957 57.9493C32.1981 57.9472 32.2006 57.9448 32.203 57.943L32.2171 57.9302L36.3802 54.2115C36.6866 53.9382 37.0935 53.7878 37.526 53.7878C37.6379 53.7878 37.7489 53.7981 37.8579 53.8183L38.773 53.0007C38.3883 52.8294 37.9605 52.7396 37.5263 52.7396C36.7801 52.7397 36.0783 52.9993 35.5506 53.4705ZM43.6323 49.4893C43.6323 48.8225 43.3414 48.1957 42.8137 47.7245C42.286 47.2528 41.5842 46.9933 40.8376 46.9933C40.0913 46.9933 39.3896 47.2529 38.8619 47.7245L34.6984 51.4429C33.8422 52.2075 33.6383 53.3694 34.1735 54.3234L35.0489 53.5416C34.9485 53.0949 35.0899 52.6249 35.4284 52.2781L35.426 52.2758L35.4835 52.224C35.4908 52.2171 35.4988 52.2099 35.5065 52.2029C35.5089 52.2009 35.5111 52.1988 35.5136 52.1968L35.528 52.1838L39.691 48.4654C39.9973 48.1918 40.4044 48.0413 40.8375 48.0413C41.2707 48.0413 41.6777 48.1918 41.9839 48.4654C42.6161 49.0299 42.6161 49.9491 41.9839 50.5133L37.7167 54.3252L37.7138 54.3225C37.4097 54.5594 37.027 54.6887 36.6232 54.6887C36.5143 54.6887 36.4067 54.6791 36.301 54.6602L35.4258 55.442C35.8115 55.6139 36.2394 55.7041 36.6745 55.7041C37.4212 55.7041 38.1229 55.4445 38.6506 54.9732L42.8138 51.2546C43.3416 50.7829 43.6323 50.1562 43.6323 49.4893Z" fill="#A2A2A2"/>
</g>
<path d="M54.1182 51.7C54.7782 51.7 55.3016 51.8933 55.6882 52.28C56.0816 52.66 56.2782 53.2167 56.2782 53.95V57H55.5682V54.02C55.5682 53.4733 55.4316 53.0567 55.1582 52.77C54.8849 52.4833 54.4949 52.34 53.9882 52.34C53.4216 52.34 52.9716 52.51 52.6382 52.85C52.3116 53.1833 52.1482 53.6467 52.1482 54.24V57H51.4382V49.58H52.1482V52.66C52.3416 52.3533 52.6082 52.1167 52.9482 51.95C53.2882 51.7833 53.6782 51.7 54.1182 51.7ZM60.7958 56.68C60.6625 56.8 60.4992 56.8933 60.3058 56.96C60.1125 57.02 59.9092 57.05 59.6958 57.05C59.2025 57.05 58.8225 56.9167 58.5558 56.65C58.2892 56.3833 58.1558 56.0067 58.1558 55.52V50.59H58.8658V51.74H60.4558V52.34H58.8658V55.48C58.8658 55.7933 58.9425 56.0333 59.0958 56.2C59.2492 56.36 59.4725 56.44 59.7658 56.44C60.0858 56.44 60.3458 56.35 60.5458 56.17L60.7958 56.68ZM64.6728 56.68C64.5394 56.8 64.3761 56.8933 64.1828 56.96C63.9894 57.02 63.7861 57.05 63.5728 57.05C63.0794 57.05 62.6994 56.9167 62.4328 56.65C62.1661 56.3833 62.0328 56.0067 62.0328 55.52V50.59H62.7428V51.74H64.3328V52.34H62.7428V55.48C62.7428 55.7933 62.8194 56.0333 62.9728 56.2C63.1261 56.36 63.3494 56.44 63.6428 56.44C63.9628 56.44 64.2228 56.35 64.4228 56.17L64.6728 56.68ZM68.6697 51.7C69.1631 51.7 69.6097 51.8133 70.0097 52.04C70.4097 52.26 70.7231 52.5733 70.9497 52.98C71.1764 53.3867 71.2897 53.85 71.2897 54.37C71.2897 54.8967 71.1764 55.3633 70.9497 55.77C70.7231 56.1767 70.4097 56.4933 70.0097 56.72C69.6164 56.94 69.1697 57.05 68.6697 57.05C68.2431 57.05 67.8564 56.9633 67.5097 56.79C67.1697 56.61 66.8897 56.35 66.6697 56.01V58.94H65.9597V51.74H66.6397V52.78C66.8531 52.4333 67.1331 52.1667 67.4797 51.98C67.8331 51.7933 68.2297 51.7 68.6697 51.7ZM68.6197 56.42C68.9864 56.42 69.3197 56.3367 69.6197 56.17C69.9197 55.9967 70.1531 55.7533 70.3197 55.44C70.4931 55.1267 70.5797 54.77 70.5797 54.37C70.5797 53.97 70.4931 53.6167 70.3197 53.31C70.1531 52.9967 69.9197 52.7533 69.6197 52.58C69.3197 52.4067 68.9864 52.32 68.6197 52.32C68.2464 52.32 67.9097 52.4067 67.6097 52.58C67.3164 52.7533 67.0831 52.9967 66.9097 53.31C66.7431 53.6167 66.6597 53.97 66.6597 54.37C66.6597 54.77 66.7431 55.1267 66.9097 55.44C67.0831 55.7533 67.3164 55.9967 67.6097 56.17C67.9097 56.3367 68.2464 56.42 68.6197 56.42ZM74.1471 57.05C73.7204 57.05 73.3104 56.99 72.9171 56.87C72.5304 56.7433 72.2271 56.5867 72.0071 56.4L72.3271 55.84C72.5471 56.0133 72.8237 56.1567 73.1571 56.27C73.4904 56.3767 73.8371 56.43 74.1971 56.43C74.6771 56.43 75.0304 56.3567 75.2571 56.21C75.4904 56.0567 75.6071 55.8433 75.6071 55.57C75.6071 55.3767 75.5437 55.2267 75.4171 55.12C75.2904 55.0067 75.1304 54.9233 74.9371 54.87C74.7437 54.81 74.4871 54.7533 74.1671 54.7C73.7404 54.62 73.3971 54.54 73.1371 54.46C72.8771 54.3733 72.6537 54.23 72.4671 54.03C72.2871 53.83 72.1971 53.5533 72.1971 53.2C72.1971 52.76 72.3804 52.4 72.7471 52.12C73.1137 51.84 73.6237 51.7 74.2771 51.7C74.6171 51.7 74.9571 51.7467 75.2971 51.84C75.6371 51.9267 75.9171 52.0433 76.1371 52.19L75.8271 52.76C75.3937 52.46 74.8771 52.31 74.2771 52.31C73.8237 52.31 73.4804 52.39 73.2471 52.55C73.0204 52.71 72.9071 52.92 72.9071 53.18C72.9071 53.38 72.9704 53.54 73.0971 53.66C73.2304 53.78 73.3937 53.87 73.5871 53.93C73.7804 53.9833 74.0471 54.04 74.3871 54.1C74.8071 54.18 75.1437 54.26 75.3971 54.34C75.6504 54.42 75.8671 54.5567 76.0471 54.75C76.2271 54.9433 76.3171 55.21 76.3171 55.55C76.3171 56.01 76.1237 56.3767 75.7371 56.65C75.3571 56.9167 74.8271 57.05 74.1471 57.05ZM77.6996 52.79C77.553 52.79 77.4263 52.7367 77.3196 52.63C77.2196 52.5233 77.1696 52.3933 77.1696 52.24C77.1696 52.0867 77.2196 51.96 77.3196 51.86C77.4263 51.7533 77.553 51.7 77.6996 51.7C77.8463 51.7 77.973 51.7533 78.0796 51.86C78.1863 51.96 78.2396 52.0867 78.2396 52.24C78.2396 52.3933 78.1863 52.5233 78.0796 52.63C77.973 52.7367 77.8463 52.79 77.6996 52.79ZM77.6996 57.05C77.553 57.05 77.4263 56.9967 77.3196 56.89C77.2196 56.7833 77.1696 56.6533 77.1696 56.5C77.1696 56.3467 77.2196 56.22 77.3196 56.12C77.4263 56.0133 77.553 55.96 77.6996 55.96C77.8463 55.96 77.973 56.0133 78.0796 56.12C78.1863 56.22 78.2396 56.3467 78.2396 56.5C78.2396 56.6533 78.1863 56.7833 78.0796 56.89C77.973 56.9967 77.8463 57.05 77.6996 57.05ZM82.258 48.58H82.908L79.608 58H78.958L82.258 48.58ZM84.9533 48.58H85.6033L82.3033 58H81.6533L84.9533 48.58ZM90.4293 51.74V56.36C90.4293 57.2533 90.2093 57.9133 89.7693 58.34C89.336 58.7733 88.6793 58.99 87.7993 58.99C87.3127 58.99 86.8493 58.9167 86.4093 58.77C85.976 58.63 85.6227 58.4333 85.3493 58.18L85.7093 57.64C85.9627 57.8667 86.2693 58.0433 86.6293 58.17C86.996 58.2967 87.3793 58.36 87.7793 58.36C88.446 58.36 88.936 58.2033 89.2493 57.89C89.5627 57.5833 89.7193 57.1033 89.7193 56.45V55.78C89.4993 56.1133 89.2093 56.3667 88.8493 56.54C88.496 56.7133 88.1027 56.8 87.6693 56.8C87.176 56.8 86.726 56.6933 86.3193 56.48C85.9193 56.26 85.6027 55.9567 85.3693 55.57C85.1427 55.1767 85.0293 54.7333 85.0293 54.24C85.0293 53.7467 85.1427 53.3067 85.3693 52.92C85.6027 52.5333 85.9193 52.2333 86.3193 52.02C86.7193 51.8067 87.1693 51.7 87.6693 51.7C88.116 51.7 88.5193 51.79 88.8793 51.97C89.2393 52.15 89.5293 52.41 89.7493 52.75V51.74H90.4293ZM87.7393 56.17C88.1193 56.17 88.4627 56.09 88.7693 55.93C89.076 55.7633 89.3127 55.5333 89.4793 55.24C89.6527 54.9467 89.7393 54.6133 89.7393 54.24C89.7393 53.8667 89.6527 53.5367 89.4793 53.25C89.3127 52.9567 89.076 52.73 88.7693 52.57C88.4693 52.4033 88.126 52.32 87.7393 52.32C87.3593 52.32 87.016 52.4 86.7093 52.56C86.4093 52.72 86.1727 52.9467 85.9993 53.24C85.8327 53.5333 85.7493 53.8667 85.7493 54.24C85.7493 54.6133 85.8327 54.9467 85.9993 55.24C86.1727 55.5333 86.4093 55.7633 86.7093 55.93C87.016 56.09 87.3593 56.17 87.7393 56.17ZM92.4148 51.74H93.1248V57H92.4148V51.74ZM92.7748 50.59C92.6281 50.59 92.5048 50.54 92.4048 50.44C92.3048 50.34 92.2548 50.22 92.2548 50.08C92.2548 49.9467 92.3048 49.83 92.4048 49.73C92.5048 49.63 92.6281 49.58 92.7748 49.58C92.9215 49.58 93.0448 49.63 93.1448 49.73C93.2448 49.8233 93.2948 49.9367 93.2948 50.07C93.2948 50.2167 93.2448 50.34 93.1448 50.44C93.0448 50.54 92.9215 50.59 92.7748 50.59ZM97.6904 56.68C97.557 56.8 97.3937 56.8933 97.2004 56.96C97.007 57.02 96.8037 57.05 96.5904 57.05C96.097 57.05 95.717 56.9167 95.4504 56.65C95.1837 56.3833 95.0504 56.0067 95.0504 55.52V50.59H95.7604V51.74H97.3504V52.34H95.7604V55.48C95.7604 55.7933 95.837 56.0333 95.9904 56.2C96.1437 56.36 96.367 56.44 96.6604 56.44C96.9804 56.44 97.2404 56.35 97.4404 56.17L97.6904 56.68ZM101.657 51.7C102.317 51.7 102.841 51.8933 103.227 52.28C103.621 52.66 103.817 53.2167 103.817 53.95V57H103.107V54.02C103.107 53.4733 102.971 53.0567 102.697 52.77C102.424 52.4833 102.034 52.34 101.527 52.34C100.961 52.34 100.511 52.51 100.177 52.85C99.8506 53.1833 99.6873 53.6467 99.6873 54.24V57H98.9773V49.58H99.6873V52.66C99.8806 52.3533 100.147 52.1167 100.487 51.95C100.827 51.7833 101.217 51.7 101.657 51.7ZM110.485 51.74V57H109.805V56.04C109.618 56.36 109.362 56.61 109.035 56.79C108.708 56.9633 108.335 57.05 107.915 57.05C107.228 57.05 106.685 56.86 106.285 56.48C105.892 56.0933 105.695 55.53 105.695 54.79V51.74H106.405V54.72C106.405 55.2733 106.542 55.6933 106.815 55.98C107.088 56.2667 107.478 56.41 107.985 56.41C108.538 56.41 108.975 56.2433 109.295 55.91C109.615 55.57 109.775 55.1 109.775 54.5V51.74H110.485ZM115.183 51.7C115.677 51.7 116.123 51.8133 116.523 52.04C116.923 52.26 117.237 52.5733 117.463 52.98C117.69 53.3867 117.803 53.85 117.803 54.37C117.803 54.89 117.69 55.3533 117.463 55.76C117.237 56.1667 116.923 56.4833 116.523 56.71C116.123 56.9367 115.677 57.05 115.183 57.05C114.743 57.05 114.347 56.9567 113.993 56.77C113.647 56.5833 113.367 56.3133 113.153 55.96V57H112.473V49.58H113.183V52.74C113.403 52.4 113.683 52.1433 114.023 51.97C114.37 51.79 114.757 51.7 115.183 51.7ZM115.133 56.42C115.5 56.42 115.833 56.3367 116.133 56.17C116.433 55.9967 116.667 55.7533 116.833 55.44C117.007 55.1267 117.093 54.77 117.093 54.37C117.093 53.97 117.007 53.6133 116.833 53.3C116.667 52.9867 116.433 52.7467 116.133 52.58C115.833 52.4067 115.5 52.32 115.133 52.32C114.76 52.32 114.423 52.4067 114.123 52.58C113.83 52.7467 113.597 52.9867 113.423 53.3C113.257 53.6133 113.173 53.97 113.173 54.37C113.173 54.77 113.257 55.1267 113.423 55.44C113.597 55.7533 113.83 55.9967 114.123 56.17C114.423 56.3367 114.76 56.42 115.133 56.42ZM119.174 57.05C119.028 57.05 118.901 56.9967 118.794 56.89C118.694 56.7833 118.644 56.6533 118.644 56.5C118.644 56.3467 118.694 56.22 118.794 56.12C118.901 56.0133 119.028 55.96 119.174 55.96C119.321 55.96 119.448 56.0133 119.554 56.12C119.661 56.22 119.714 56.3467 119.714 56.5C119.714 56.6533 119.661 56.7833 119.554 56.89C119.448 56.9967 119.321 57.05 119.174 57.05ZM123.257 57.05C122.737 57.05 122.27 56.9367 121.857 56.71C121.45 56.4833 121.13 56.1667 120.897 55.76C120.664 55.3467 120.547 54.8833 120.547 54.37C120.547 53.8567 120.664 53.3967 120.897 52.99C121.13 52.5833 121.45 52.2667 121.857 52.04C122.27 51.8133 122.737 51.7 123.257 51.7C123.71 51.7 124.114 51.79 124.467 51.97C124.827 52.1433 125.11 52.4 125.317 52.74L124.787 53.1C124.614 52.84 124.394 52.6467 124.127 52.52C123.86 52.3867 123.57 52.32 123.257 52.32C122.877 52.32 122.534 52.4067 122.227 52.58C121.927 52.7467 121.69 52.9867 121.517 53.3C121.35 53.6133 121.267 53.97 121.267 54.37C121.267 54.7767 121.35 55.1367 121.517 55.45C121.69 55.7567 121.927 55.9967 122.227 56.17C122.534 56.3367 122.877 56.42 123.257 56.42C123.57 56.42 123.86 56.3567 124.127 56.23C124.394 56.1033 124.614 55.91 124.787 55.65L125.317 56.01C125.11 56.35 124.827 56.61 124.467 56.79C124.107 56.9633 123.704 57.05 123.257 57.05ZM128.774 57.05C128.267 57.05 127.81 56.9367 127.404 56.71C126.997 56.4767 126.677 56.1567 126.444 55.75C126.21 55.3433 126.094 54.8833 126.094 54.37C126.094 53.8567 126.21 53.3967 126.444 52.99C126.677 52.5833 126.997 52.2667 127.404 52.04C127.81 51.8133 128.267 51.7 128.774 51.7C129.28 51.7 129.737 51.8133 130.144 52.04C130.55 52.2667 130.867 52.5833 131.094 52.99C131.327 53.3967 131.444 53.8567 131.444 54.37C131.444 54.8833 131.327 55.3433 131.094 55.75C130.867 56.1567 130.55 56.4767 130.144 56.71C129.737 56.9367 129.28 57.05 128.774 57.05ZM128.774 56.42C129.147 56.42 129.48 56.3367 129.774 56.17C130.074 55.9967 130.307 55.7533 130.474 55.44C130.64 55.1267 130.724 54.77 130.724 54.37C130.724 53.97 130.64 53.6133 130.474 53.3C130.307 52.9867 130.074 52.7467 129.774 52.58C129.48 52.4067 129.147 52.32 128.774 52.32C128.4 52.32 128.064 52.4067 127.764 52.58C127.47 52.7467 127.237 52.9867 127.064 53.3C126.897 53.6133 126.814 53.97 126.814 54.37C126.814 54.77 126.897 55.1267 127.064 55.44C127.237 55.7533 127.47 55.9967 127.764 56.17C128.064 56.3367 128.4 56.42 128.774 56.42ZM139.453 51.7C140.113 51.7 140.63 51.89 141.003 52.27C141.383 52.65 141.573 53.21 141.573 53.95V57H140.863V54.02C140.863 53.4733 140.73 53.0567 140.463 52.77C140.203 52.4833 139.833 52.34 139.353 52.34C138.807 52.34 138.377 52.51 138.063 52.85C137.75 53.1833 137.593 53.6467 137.593 54.24V57H136.883V54.02C136.883 53.4733 136.75 53.0567 136.483 52.77C136.223 52.4833 135.85 52.34 135.363 52.34C134.823 52.34 134.393 52.51 134.073 52.85C133.76 53.1833 133.603 53.6467 133.603 54.24V57H132.893V51.74H133.573V52.7C133.76 52.38 134.02 52.1333 134.353 51.96C134.687 51.7867 135.07 51.7 135.503 51.7C135.943 51.7 136.323 51.7933 136.643 51.98C136.97 52.1667 137.213 52.4433 137.373 52.81C137.567 52.4633 137.843 52.1933 138.203 52C138.57 51.8 138.987 51.7 139.453 51.7ZM145.559 48.58H146.209L142.909 58H142.259L145.559 48.58ZM150.965 49.58V57H150.285V55.96C150.071 56.3133 149.788 56.5833 149.435 56.77C149.088 56.9567 148.695 57.05 148.255 57.05C147.761 57.05 147.315 56.9367 146.915 56.71C146.515 56.4833 146.201 56.1667 145.975 55.76C145.748 55.3533 145.635 54.89 145.635 54.37C145.635 53.85 145.748 53.3867 145.975 52.98C146.201 52.5733 146.515 52.26 146.915 52.04C147.315 51.8133 147.761 51.7 148.255 51.7C148.681 51.7 149.065 51.79 149.405 51.97C149.751 52.1433 150.035 52.4 150.255 52.74V49.58H150.965ZM148.315 56.42C148.681 56.42 149.011 56.3367 149.305 56.17C149.605 55.9967 149.838 55.7533 150.005 55.44C150.178 55.1267 150.265 54.77 150.265 54.37C150.265 53.97 150.178 53.6133 150.005 53.3C149.838 52.9867 149.605 52.7467 149.305 52.58C149.011 52.4067 148.681 52.32 148.315 52.32C147.941 52.32 147.605 52.4067 147.305 52.58C147.011 52.7467 146.778 52.9867 146.605 53.3C146.438 53.6133 146.355 53.97 146.355 54.37C146.355 54.77 146.438 55.1267 146.605 55.44C146.778 55.7533 147.011 55.9967 147.305 56.17C147.605 56.3367 147.941 56.42 148.315 56.42ZM155.092 57.05C154.585 57.05 154.129 56.9367 153.722 56.71C153.315 56.4767 152.995 56.1567 152.762 55.75C152.529 55.3433 152.412 54.8833 152.412 54.37C152.412 53.8567 152.529 53.3967 152.762 52.99C152.995 52.5833 153.315 52.2667 153.722 52.04C154.129 51.8133 154.585 51.7 155.092 51.7C155.599 51.7 156.055 51.8133 156.462 52.04C156.869 52.2667 157.185 52.5833 157.412 52.99C157.645 53.3967 157.762 53.8567 157.762 54.37C157.762 54.8833 157.645 55.3433 157.412 55.75C157.185 56.1567 156.869 56.4767 156.462 56.71C156.055 56.9367 155.599 57.05 155.092 57.05ZM155.092 56.42C155.465 56.42 155.799 56.3367 156.092 56.17C156.392 55.9967 156.625 55.7533 156.792 55.44C156.959 55.1267 157.042 54.77 157.042 54.37C157.042 53.97 156.959 53.6133 156.792 53.3C156.625 52.9867 156.392 52.7467 156.092 52.58C155.799 52.4067 155.465 52.32 155.092 52.32C154.719 52.32 154.382 52.4067 154.082 52.58C153.789 52.7467 153.555 52.9867 153.382 53.3C153.215 53.6133 153.132 53.97 153.132 54.37C153.132 54.77 153.215 55.1267 153.382 55.44C153.555 55.7533 153.789 55.9967 154.082 56.17C154.382 56.3367 154.719 56.42 155.092 56.42ZM161.392 57.05C160.872 57.05 160.405 56.9367 159.992 56.71C159.585 56.4833 159.265 56.1667 159.032 55.76C158.798 55.3467 158.682 54.8833 158.682 54.37C158.682 53.8567 158.798 53.3967 159.032 52.99C159.265 52.5833 159.585 52.2667 159.992 52.04C160.405 51.8133 160.872 51.7 161.392 51.7C161.845 51.7 162.248 51.79 162.602 51.97C162.962 52.1433 163.245 52.4 163.452 52.74L162.922 53.1C162.748 52.84 162.528 52.6467 162.262 52.52C161.995 52.3867 161.705 52.32 161.392 52.32C161.012 52.32 160.668 52.4067 160.362 52.58C160.062 52.7467 159.825 52.9867 159.652 53.3C159.485 53.6133 159.402 53.97 159.402 54.37C159.402 54.7767 159.485 55.1367 159.652 55.45C159.825 55.7567 160.062 55.9967 160.362 56.17C160.668 56.3367 161.012 56.42 161.392 56.42C161.705 56.42 161.995 56.3567 162.262 56.23C162.528 56.1033 162.748 55.91 162.922 55.65L163.452 56.01C163.245 56.35 162.962 56.61 162.602 56.79C162.242 56.9633 161.838 57.05 161.392 57.05ZM166.718 54.36L165.478 55.5V57H164.768V49.58H165.478V54.61L168.618 51.74H169.498L167.248 53.89L169.708 57H168.838L166.718 54.36ZM173.484 51.7C173.978 51.7 174.424 51.8133 174.824 52.04C175.224 52.26 175.538 52.5733 175.764 52.98C175.991 53.3867 176.104 53.85 176.104 54.37C176.104 54.89 175.991 55.3533 175.764 55.76C175.538 56.1667 175.224 56.4833 174.824 56.71C174.424 56.9367 173.978 57.05 173.484 57.05C173.044 57.05 172.648 56.9567 172.294 56.77C171.948 56.5833 171.668 56.3133 171.454 55.96V57H170.774V49.58H171.484V52.74C171.704 52.4 171.984 52.1433 172.324 51.97C172.671 51.79 173.058 51.7 173.484 51.7ZM173.434 56.42C173.801 56.42 174.134 56.3367 174.434 56.17C174.734 55.9967 174.968 55.7533 175.134 55.44C175.308 55.1267 175.394 54.77 175.394 54.37C175.394 53.97 175.308 53.6133 175.134 53.3C174.968 52.9867 174.734 52.7467 174.434 52.58C174.134 52.4067 173.801 52.32 173.434 52.32C173.061 52.32 172.724 52.4067 172.424 52.58C172.131 52.7467 171.898 52.9867 171.724 53.3C171.558 53.6133 171.474 53.97 171.474 54.37C171.474 54.77 171.558 55.1267 171.724 55.44C171.898 55.7533 172.131 55.9967 172.424 56.17C172.724 56.3367 173.061 56.42 173.434 56.42ZM179.702 57.05C179.195 57.05 178.738 56.9367 178.332 56.71C177.925 56.4767 177.605 56.1567 177.372 55.75C177.138 55.3433 177.022 54.8833 177.022 54.37C177.022 53.8567 177.138 53.3967 177.372 52.99C177.605 52.5833 177.925 52.2667 178.332 52.04C178.738 51.8133 179.195 51.7 179.702 51.7C180.208 51.7 180.665 51.8133 181.072 52.04C181.478 52.2667 181.795 52.5833 182.022 52.99C182.255 53.3967 182.372 53.8567 182.372 54.37C182.372 54.8833 182.255 55.3433 182.022 55.75C181.795 56.1567 181.478 56.4767 181.072 56.71C180.665 56.9367 180.208 57.05 179.702 57.05ZM179.702 56.42C180.075 56.42 180.408 56.3367 180.702 56.17C181.002 55.9967 181.235 55.7533 181.402 55.44C181.568 55.1267 181.652 54.77 181.652 54.37C181.652 53.97 181.568 53.6133 181.402 53.3C181.235 52.9867 181.002 52.7467 180.702 52.58C180.408 52.4067 180.075 52.32 179.702 52.32C179.328 52.32 178.992 52.4067 178.692 52.58C178.398 52.7467 178.165 52.9867 177.992 53.3C177.825 53.6133 177.742 53.97 177.742 54.37C177.742 54.77 177.825 55.1267 177.992 55.44C178.165 55.7533 178.398 55.9967 178.692 56.17C178.992 56.3367 179.328 56.42 179.702 56.42ZM186.986 57L185.316 54.8L183.636 57H182.836L184.916 54.3L182.936 51.74H183.736L185.316 53.8L186.896 51.74H187.676L185.696 54.3L187.796 57H186.986ZM191.657 51.7C192.317 51.7 192.841 51.8933 193.227 52.28C193.621 52.66 193.817 53.2167 193.817 53.95V57H193.107V54.02C193.107 53.4733 192.971 53.0567 192.697 52.77C192.424 52.4833 192.034 52.34 191.527 52.34C190.961 52.34 190.511 52.51 190.177 52.85C189.851 53.1833 189.687 53.6467 189.687 54.24V57H188.977V49.58H189.687V52.66C189.881 52.3533 190.147 52.1167 190.487 51.95C190.827 51.7833 191.217 51.7 191.657 51.7ZM200.564 51.74V58.94H199.854V56.01C199.634 56.35 199.351 56.61 199.004 56.79C198.664 56.9633 198.281 57.05 197.854 57.05C197.354 57.05 196.904 56.94 196.504 56.72C196.111 56.4933 195.801 56.1767 195.574 55.77C195.348 55.3633 195.234 54.8967 195.234 54.37C195.234 53.85 195.348 53.3867 195.574 52.98C195.801 52.5733 196.114 52.26 196.514 52.04C196.914 51.8133 197.361 51.7 197.854 51.7C198.294 51.7 198.688 51.7933 199.034 51.98C199.388 52.1667 199.671 52.4333 199.884 52.78V51.74H200.564ZM197.914 56.42C198.281 56.42 198.611 56.3367 198.904 56.17C199.204 55.9967 199.438 55.7533 199.604 55.44C199.778 55.1267 199.864 54.77 199.864 54.37C199.864 53.97 199.778 53.6167 199.604 53.31C199.438 52.9967 199.204 52.7533 198.904 52.58C198.611 52.4067 198.281 52.32 197.914 52.32C197.541 52.32 197.204 52.4067 196.904 52.58C196.611 52.7533 196.378 52.9967 196.204 53.31C196.038 53.6167 195.954 53.97 195.954 54.37C195.954 54.77 196.038 55.1267 196.204 55.44C196.378 55.7533 196.611 55.9967 196.904 56.17C197.204 56.3367 197.541 56.42 197.914 56.42Z" fill="#717171"/>
<rect x="110" y="77" width="48" height="19" rx="9.5" fill="#436BDF"/>
<path d="M121.373 91.06C120.68 91.06 120.053 90.9067 119.493 90.6C118.94 90.2933 118.503 89.87 118.183 89.33C117.87 88.7833 117.713 88.1733 117.713 87.5C117.713 86.8267 117.87 86.22 118.183 85.68C118.503 85.1333 118.943 84.7067 119.503 84.4C120.063 84.0933 120.69 83.94 121.383 83.94C121.903 83.94 122.383 84.0267 122.823 84.2C123.263 84.3733 123.637 84.6267 123.943 84.96L123.473 85.43C122.927 84.8767 122.237 84.6 121.403 84.6C120.85 84.6 120.347 84.7267 119.893 84.98C119.44 85.2333 119.083 85.58 118.823 86.02C118.57 86.46 118.443 86.9533 118.443 87.5C118.443 88.0467 118.57 88.54 118.823 88.98C119.083 89.42 119.44 89.7667 119.893 90.02C120.347 90.2733 120.85 90.4 121.403 90.4C122.243 90.4 122.933 90.12 123.473 89.56L123.943 90.03C123.637 90.3633 123.26 90.62 122.813 90.8C122.373 90.9733 121.893 91.06 121.373 91.06ZM126.051 86.77C126.218 86.4167 126.464 86.15 126.791 85.97C127.124 85.79 127.534 85.7 128.021 85.7V86.39L127.851 86.38C127.298 86.38 126.864 86.55 126.551 86.89C126.238 87.23 126.081 87.7067 126.081 88.32V91H125.371V85.74H126.051V86.77ZM131.508 90.42C131.834 90.42 132.134 90.3633 132.408 90.25C132.688 90.13 132.924 89.9567 133.118 89.73L133.518 90.19C133.284 90.47 132.994 90.6833 132.648 90.83C132.301 90.9767 131.918 91.05 131.498 91.05C130.958 91.05 130.478 90.9367 130.058 90.71C129.638 90.4767 129.311 90.1567 129.078 89.75C128.844 89.3433 128.728 88.8833 128.728 88.37C128.728 87.8567 128.838 87.3967 129.058 86.99C129.284 86.5833 129.594 86.2667 129.988 86.04C130.381 85.8133 130.828 85.7 131.328 85.7C131.794 85.7 132.214 85.8067 132.588 86.02C132.968 86.2333 133.268 86.53 133.488 86.91C133.714 87.29 133.834 87.7233 133.848 88.21L129.528 89.05C129.661 89.4767 129.901 89.8133 130.248 90.06C130.601 90.3 131.021 90.42 131.508 90.42ZM131.328 86.31C130.961 86.31 130.631 86.3967 130.338 86.57C130.051 86.7367 129.824 86.9733 129.658 87.28C129.498 87.58 129.418 87.9267 129.418 88.32C129.418 88.42 129.421 88.4933 129.428 88.54L133.138 87.82C133.058 87.38 132.854 87.02 132.528 86.74C132.201 86.4533 131.801 86.31 131.328 86.31ZM140.093 85.74V91H139.413V89.96C139.199 90.3133 138.916 90.5833 138.563 90.77C138.216 90.9567 137.823 91.05 137.383 91.05C136.889 91.05 136.443 90.9367 136.043 90.71C135.643 90.4833 135.329 90.1667 135.103 89.76C134.876 89.3533 134.763 88.89 134.763 88.37C134.763 87.85 134.876 87.3867 135.103 86.98C135.329 86.5733 135.643 86.26 136.043 86.04C136.443 85.8133 136.889 85.7 137.383 85.7C137.809 85.7 138.193 85.79 138.533 85.97C138.879 86.1433 139.163 86.4 139.383 86.74V85.74H140.093ZM137.443 90.42C137.809 90.42 138.139 90.3367 138.433 90.17C138.733 89.9967 138.966 89.7533 139.133 89.44C139.306 89.1267 139.393 88.77 139.393 88.37C139.393 87.97 139.306 87.6133 139.133 87.3C138.966 86.9867 138.733 86.7467 138.433 86.58C138.139 86.4067 137.809 86.32 137.443 86.32C137.069 86.32 136.733 86.4067 136.433 86.58C136.139 86.7467 135.906 86.9867 135.733 87.3C135.566 87.6133 135.483 87.97 135.483 88.37C135.483 88.77 135.566 89.1267 135.733 89.44C135.906 89.7533 136.139 89.9967 136.433 90.17C136.733 90.3367 137.069 90.42 137.443 90.42ZM144.66 90.68C144.527 90.8 144.363 90.8933 144.17 90.96C143.977 91.02 143.773 91.05 143.56 91.05C143.067 91.05 142.687 90.9167 142.42 90.65C142.153 90.3833 142.02 90.0067 142.02 89.52V84.59H142.73V85.74H144.32V86.34H142.73V89.48C142.73 89.7933 142.807 90.0333 142.96 90.2C143.113 90.36 143.337 90.44 143.63 90.44C143.95 90.44 144.21 90.35 144.41 90.17L144.66 90.68ZM148.011 90.42C148.338 90.42 148.638 90.3633 148.911 90.25C149.191 90.13 149.428 89.9567 149.621 89.73L150.021 90.19C149.788 90.47 149.498 90.6833 149.151 90.83C148.805 90.9767 148.421 91.05 148.001 91.05C147.461 91.05 146.981 90.9367 146.561 90.71C146.141 90.4767 145.815 90.1567 145.581 89.75C145.348 89.3433 145.231 88.8833 145.231 88.37C145.231 87.8567 145.341 87.3967 145.561 86.99C145.788 86.5833 146.098 86.2667 146.491 86.04C146.885 85.8133 147.331 85.7 147.831 85.7C148.298 85.7 148.718 85.8067 149.091 86.02C149.471 86.2333 149.771 86.53 149.991 86.91C150.218 87.29 150.338 87.7233 150.351 88.21L146.031 89.05C146.165 89.4767 146.405 89.8133 146.751 90.06C147.105 90.3 147.525 90.42 148.011 90.42ZM147.831 86.31C147.465 86.31 147.135 86.3967 146.841 86.57C146.555 86.7367 146.328 86.9733 146.161 87.28C146.001 87.58 145.921 87.9267 145.921 88.32C145.921 88.42 145.925 88.4933 145.931 88.54L149.641 87.82C149.561 87.38 149.358 87.02 149.031 86.74C148.705 86.4533 148.305 86.31 147.831 86.31Z" fill="white"/>
<defs>
<filter id="filter0_d" x="0" y="0" width="273" height="116" filterUnits="userSpaceOnUse" color-interpolation-filters="sRGB">
<feFlood flood-opacity="0" result="BackgroundImageFix"/>
<feColorMatrix in="SourceAlpha" type="matrix" values="0 0 0 0 0 0 0 0 0 0 0 0 0 0 0 0 0 0 127 0" result="hardAlpha"/>
<feOffset dx="3" dy="4"/>
<feGaussianBlur stdDeviation="2.5"/>
<feComposite in2="hardAlpha" operator="out"/>
<feColorMatrix type="matrix" values="0 0 0 0 0 0 0 0 0 0 0 0 0 0 0 0 0 0 0.25 0"/>
<feBlend mode="normal" in2="BackgroundImageFix" result="effect1_dropShadow"/>
<feBlend mode="normal" in="SourceGraphic" in2="effect1_dropShadow" result="shape"/>
</filter>
<clipPath id="clip0">
<rect width="16.2262" height="14.493" fill="white" transform="translate(29 47)"/>
</clipPath>
</defs>
</svg>
