<svg width="247" height="193" viewBox="0 0 247 193" fill="none" xmlns="http://www.w3.org/2000/svg">
<g filter="url(#filter0_d)">
<rect x="4" y="3.25867" width="227" height="172.741" rx="8" fill="#2E2929"/>
</g>
<path d="M19.1396 27.938C18.473 27.938 17.9396 27.708 17.5396 27.248C17.1396 26.7813 16.9396 26.088 16.9396 25.168C16.9396 24.248 17.1396 23.5547 17.5396 23.088C17.9463 22.6147 18.483 22.378 19.1496 22.378C19.563 22.378 19.8996 22.4547 20.1596 22.608C20.4263 22.7613 20.643 22.948 20.8096 23.168H20.8696C20.863 23.0813 20.8496 22.9547 20.8296 22.788C20.8163 22.6147 20.8096 22.478 20.8096 22.378V20.238H21.6896V27.838H20.9796L20.8496 27.118H20.8096C20.6496 27.3447 20.4363 27.538 20.1696 27.698C19.903 27.858 19.5596 27.938 19.1396 27.938ZM19.2796 27.208C19.8463 27.208 20.243 27.0547 20.4696 26.748C20.703 26.4347 20.8196 25.9647 20.8196 25.338V25.178C20.8196 24.5113 20.7096 24.0013 20.4896 23.648C20.2696 23.288 19.863 23.108 19.2696 23.108C18.7963 23.108 18.4396 23.298 18.1996 23.678C17.9663 24.0513 17.8496 24.5547 17.8496 25.188C17.8496 25.828 17.9663 26.3247 18.1996 26.678C18.4396 27.0313 18.7996 27.208 19.2796 27.208ZM28.052 25.148C28.052 26.0347 27.8253 26.7213 27.372 27.208C26.9253 27.6947 26.3187 27.938 25.552 27.938C25.0787 27.938 24.6553 27.8313 24.282 27.618C23.9153 27.398 23.6253 27.0813 23.412 26.668C23.1987 26.248 23.092 25.7413 23.092 25.148C23.092 24.2613 23.3153 23.578 23.762 23.098C24.2087 22.618 24.8153 22.378 25.582 22.378C26.0687 22.378 26.4953 22.488 26.862 22.708C27.2353 22.9213 27.5253 23.2347 27.732 23.648C27.9453 24.0547 28.052 24.5547 28.052 25.148ZM24.002 25.148C24.002 25.7813 24.1253 26.2847 24.372 26.658C24.6253 27.0247 25.0253 27.208 25.572 27.208C26.112 27.208 26.5087 27.0247 26.762 26.658C27.0153 26.2847 27.142 25.7813 27.142 25.148C27.142 24.5147 27.0153 24.018 26.762 23.658C26.5087 23.298 26.1087 23.118 25.562 23.118C25.0153 23.118 24.6187 23.298 24.372 23.658C24.1253 24.018 24.002 24.5147 24.002 25.148ZM31.5967 27.938C31.1233 27.938 30.7 27.8413 30.3267 27.648C29.96 27.4547 29.67 27.1547 29.4567 26.748C29.25 26.3413 29.1467 25.8213 29.1467 25.188C29.1467 24.528 29.2567 23.9913 29.4767 23.578C29.6967 23.1647 29.9933 22.8613 30.3667 22.668C30.7467 22.4747 31.1767 22.378 31.6567 22.378C31.93 22.378 32.1933 22.408 32.4467 22.468C32.7 22.5213 32.9067 22.588 33.0667 22.668L32.7967 23.398C32.6367 23.338 32.45 23.2813 32.2367 23.228C32.0233 23.1747 31.8233 23.148 31.6367 23.148C30.5833 23.148 30.0567 23.8247 30.0567 25.178C30.0567 25.8247 30.1833 26.3213 30.4367 26.668C30.6967 27.008 31.08 27.178 31.5867 27.178C31.88 27.178 32.1367 27.148 32.3567 27.088C32.5833 27.028 32.79 26.9547 32.9767 26.868V27.648C32.7967 27.7413 32.5967 27.8113 32.3767 27.858C32.1633 27.9113 31.9033 27.938 31.5967 27.938ZM35.1214 24.208C35.1214 24.3147 35.1147 24.4547 35.1014 24.628C35.0947 24.8013 35.088 24.9513 35.0814 25.078H35.1214C35.1614 25.0247 35.2214 24.948 35.3014 24.848C35.3814 24.748 35.4614 24.648 35.5414 24.548C35.628 24.4413 35.7014 24.3547 35.7614 24.288L37.4714 22.478H38.5014L36.3314 24.768L38.6514 27.838H37.5914L35.7314 25.338L35.1214 25.868V27.838H34.2514V20.238H35.1214V24.208ZM40.4732 22.088C40.4732 22.3147 40.4665 22.528 40.4532 22.728C40.4465 22.9213 40.4365 23.0747 40.4232 23.188H40.4732C40.6265 22.9613 40.8365 22.7713 41.1032 22.618C41.3698 22.4647 41.7132 22.388 42.1332 22.388C42.7998 22.388 43.3332 22.6213 43.7332 23.088C44.1398 23.548 44.3432 24.238 44.3432 25.158C44.3432 26.078 44.1398 26.7713 43.7332 27.238C43.3265 27.7047 42.7932 27.938 42.1332 27.938C41.7132 27.938 41.3698 27.8613 41.1032 27.708C40.8365 27.5547 40.6265 27.3713 40.4732 27.158H40.4032L40.2232 27.838H39.5932V20.238H40.4732V22.088ZM41.9832 23.118C41.4165 23.118 41.0232 23.2813 40.8032 23.608C40.5832 23.9347 40.4732 24.4413 40.4732 25.128V25.168C40.4732 25.828 40.5798 26.3347 40.7932 26.688C41.0132 27.0347 41.4165 27.208 42.0032 27.208C42.4832 27.208 42.8398 27.0313 43.0732 26.678C43.3132 26.3247 43.4332 25.8147 43.4332 25.148C43.4332 23.7947 42.9498 23.118 41.9832 23.118ZM50.4055 25.148C50.4055 26.0347 50.1788 26.7213 49.7255 27.208C49.2788 27.6947 48.6722 27.938 47.9055 27.938C47.4322 27.938 47.0088 27.8313 46.6355 27.618C46.2688 27.398 45.9788 27.0813 45.7655 26.668C45.5522 26.248 45.4455 25.7413 45.4455 25.148C45.4455 24.2613 45.6688 23.578 46.1155 23.098C46.5622 22.618 47.1688 22.378 47.9355 22.378C48.4222 22.378 48.8488 22.488 49.2155 22.708C49.5888 22.9213 49.8788 23.2347 50.0855 23.648C50.2988 24.0547 50.4055 24.5547 50.4055 25.148ZM46.3555 25.148C46.3555 25.7813 46.4788 26.2847 46.7255 26.658C46.9788 27.0247 47.3788 27.208 47.9255 27.208C48.4655 27.208 48.8622 27.0247 49.1155 26.658C49.3688 26.2847 49.4955 25.7813 49.4955 25.148C49.4955 24.5147 49.3688 24.018 49.1155 23.658C48.8622 23.298 48.4622 23.118 47.9155 23.118C47.3688 23.118 46.9722 23.298 46.7255 23.658C46.4788 24.018 46.3555 24.5147 46.3555 25.148ZM52.8749 25.098L51.0249 22.478H52.0249L53.4049 24.498L54.7749 22.478H55.7649L53.9149 25.098L55.8649 27.838H54.8649L53.4049 25.698L51.9249 27.838H50.9349L52.8749 25.098ZM61.3779 22.478V27.838H60.6579L60.5279 27.128H60.4879C60.3145 27.408 60.0745 27.6147 59.7679 27.748C59.4612 27.8747 59.1345 27.938 58.7879 27.938C58.1412 27.938 57.6545 27.7847 57.3279 27.478C57.0012 27.1647 56.8379 26.668 56.8379 25.988V22.478H57.7279V25.928C57.7279 26.7813 58.1245 27.208 58.9179 27.208C59.5112 27.208 59.9212 27.0413 60.1479 26.708C60.3812 26.3747 60.4979 25.8947 60.4979 25.268V22.478H61.3779ZM66.5695 26.358C66.5695 26.878 66.3762 27.2713 65.9895 27.538C65.6028 27.8047 65.0828 27.938 64.4295 27.938C64.0562 27.938 63.7328 27.908 63.4595 27.848C63.1928 27.788 62.9562 27.7047 62.7495 27.598V26.798C62.9628 26.9047 63.2195 27.0047 63.5195 27.098C63.8262 27.1847 64.1362 27.228 64.4495 27.228C64.8962 27.228 65.2195 27.158 65.4195 27.018C65.6195 26.8713 65.7195 26.678 65.7195 26.438C65.7195 26.3047 65.6828 26.1847 65.6095 26.078C65.5362 25.9713 65.4028 25.8647 65.2095 25.758C65.0228 25.6513 64.7528 25.5313 64.3995 25.398C64.0528 25.2647 63.7562 25.1313 63.5095 24.998C63.2628 24.8647 63.0728 24.7047 62.9395 24.518C62.8062 24.3313 62.7395 24.0913 62.7395 23.798C62.7395 23.3447 62.9228 22.9947 63.2895 22.748C63.6628 22.5013 64.1495 22.378 64.7495 22.378C65.0762 22.378 65.3795 22.4113 65.6595 22.478C65.9462 22.538 66.2128 22.6247 66.4595 22.738L66.1595 23.438C65.9328 23.3447 65.6962 23.2647 65.4495 23.198C65.2028 23.1313 64.9495 23.098 64.6895 23.098C64.3295 23.098 64.0528 23.158 63.8595 23.278C63.6728 23.3913 63.5795 23.548 63.5795 23.748C63.5795 23.8947 63.6228 24.0213 63.7095 24.128C63.7962 24.228 63.9395 24.328 64.1395 24.428C64.3462 24.5213 64.6195 24.6347 64.9595 24.768C65.2995 24.8947 65.5895 25.0247 65.8295 25.158C66.0695 25.2913 66.2528 25.4547 66.3795 25.648C66.5062 25.8347 66.5695 26.0713 66.5695 26.358ZM69.9346 22.378C70.3946 22.378 70.788 22.478 71.1146 22.678C71.448 22.878 71.7013 23.1613 71.8746 23.528C72.0546 23.888 72.1446 24.3113 72.1446 24.798V25.328H68.4746C68.488 25.9347 68.6413 26.398 68.9346 26.718C69.2346 27.0313 69.6513 27.188 70.1846 27.188C70.5246 27.188 70.8246 27.158 71.0846 27.098C71.3513 27.0313 71.6246 26.938 71.9046 26.818V27.588C71.6313 27.708 71.3613 27.7947 71.0946 27.848C70.828 27.908 70.5113 27.938 70.1446 27.938C69.638 27.938 69.188 27.8347 68.7946 27.628C68.408 27.4213 68.1046 27.1147 67.8846 26.708C67.6713 26.2947 67.5646 25.7913 67.5646 25.198C67.5646 24.6113 67.6613 24.108 67.8546 23.688C68.0546 23.268 68.3313 22.9447 68.6846 22.718C69.0446 22.4913 69.4613 22.378 69.9346 22.378ZM69.9246 23.098C69.5046 23.098 69.1713 23.2347 68.9246 23.508C68.6846 23.7747 68.5413 24.148 68.4946 24.628H71.2246C71.218 24.1747 71.1113 23.808 70.9046 23.528C70.698 23.2413 70.3713 23.098 69.9246 23.098ZM76.0092 22.378C76.1092 22.378 76.2158 22.3847 76.3292 22.398C76.4492 22.4047 76.5525 22.418 76.6392 22.438L76.5292 23.248C76.4425 23.228 76.3458 23.2113 76.2392 23.198C76.1392 23.1847 76.0425 23.178 75.9492 23.178C75.6758 23.178 75.4192 23.2547 75.1792 23.408C74.9392 23.5547 74.7458 23.7647 74.5992 24.038C74.4592 24.3047 74.3892 24.618 74.3892 24.978V27.838H73.5092V22.478H74.2292L74.3292 23.458H74.3692C74.5425 23.1647 74.7658 22.9113 75.0392 22.698C75.3125 22.4847 75.6358 22.378 76.0092 22.378ZM85.2 24.268C85.2 24.5747 85.1634 24.8747 85.09 25.168C85.0234 25.4613 84.9167 25.728 84.77 25.968C84.6234 26.2013 84.4434 26.3913 84.23 26.538C84.0167 26.678 83.7634 26.748 83.47 26.748C83.1634 26.748 82.92 26.6613 82.74 26.488C82.5667 26.308 82.46 26.1047 82.42 25.878H82.37C82.25 26.1247 82.0734 26.3313 81.84 26.498C81.6067 26.6647 81.3134 26.748 80.96 26.748C80.4534 26.748 80.06 26.578 79.78 26.238C79.5067 25.898 79.37 25.448 79.37 24.888C79.37 24.448 79.4567 24.0613 79.63 23.728C79.8034 23.388 80.0467 23.1213 80.36 22.928C80.68 22.7347 81.0567 22.638 81.49 22.638C81.7834 22.638 82.07 22.6647 82.35 22.718C82.6367 22.7647 82.86 22.818 83.02 22.878L82.92 24.908C82.9134 25.028 82.91 25.1147 82.91 25.168C82.91 25.2147 82.91 25.248 82.91 25.268C82.91 25.6147 82.97 25.8447 83.09 25.958C83.2167 26.0713 83.3634 26.128 83.53 26.128C83.7367 26.128 83.91 26.0447 84.05 25.878C84.1967 25.7047 84.3067 25.478 84.38 25.198C84.46 24.9113 84.5 24.598 84.5 24.258C84.5 23.638 84.3734 23.1147 84.12 22.688C83.8734 22.2547 83.53 21.9247 83.09 21.698C82.6567 21.4713 82.1634 21.358 81.61 21.358C80.85 21.358 80.2067 21.5147 79.68 21.828C79.16 22.1413 78.7634 22.5747 78.49 23.128C78.2234 23.6747 78.09 24.3013 78.09 25.008C78.09 25.9947 78.35 26.7513 78.87 27.278C79.39 27.8047 80.14 28.068 81.12 28.068C81.5267 28.068 81.9134 28.0213 82.28 27.928C82.6534 27.8413 82.9834 27.7447 83.27 27.638V28.318C82.9834 28.438 82.66 28.5347 82.3 28.608C81.9467 28.688 81.5534 28.728 81.12 28.728C80.3334 28.728 79.66 28.5813 79.1 28.288C78.54 27.9947 78.11 27.5747 77.81 27.028C77.5167 26.4747 77.37 25.8113 77.37 25.038C77.37 24.418 77.4667 23.8447 77.66 23.318C77.8534 22.7847 78.1334 22.3247 78.5 21.938C78.8667 21.5447 79.31 21.2413 79.83 21.028C80.3567 20.808 80.95 20.698 81.61 20.698C82.3034 20.698 82.92 20.8413 83.46 21.128C84 21.4147 84.4234 21.8247 84.73 22.358C85.0434 22.8913 85.2 23.528 85.2 24.268ZM80.15 24.908C80.15 25.3347 80.2334 25.6447 80.4 25.838C80.5734 26.0313 80.8034 26.128 81.09 26.128C81.4634 26.128 81.73 25.988 81.89 25.708C82.0567 25.428 82.1534 25.0647 82.18 24.618L82.24 23.368C82.1534 23.3413 82.0434 23.318 81.91 23.298C81.7767 23.278 81.64 23.268 81.5 23.268C81.1734 23.268 80.91 23.348 80.71 23.508C80.51 23.668 80.3667 23.8747 80.28 24.128C80.1934 24.3747 80.15 24.6347 80.15 24.908ZM88.5342 27.938C87.8675 27.938 87.3342 27.708 86.9342 27.248C86.5342 26.7813 86.3342 26.088 86.3342 25.168C86.3342 24.248 86.5342 23.5547 86.9342 23.088C87.3408 22.6147 87.8775 22.378 88.5442 22.378C88.9575 22.378 89.2942 22.4547 89.5542 22.608C89.8208 22.7613 90.0375 22.948 90.2042 23.168H90.2642C90.2575 23.0813 90.2442 22.9547 90.2242 22.788C90.2108 22.6147 90.2042 22.478 90.2042 22.378V20.238H91.0842V27.838H90.3742L90.2442 27.118H90.2042C90.0442 27.3447 89.8308 27.538 89.5642 27.698C89.2975 27.858 88.9542 27.938 88.5342 27.938ZM88.6742 27.208C89.2408 27.208 89.6375 27.0547 89.8642 26.748C90.0975 26.4347 90.2142 25.9647 90.2142 25.338V25.178C90.2142 24.5113 90.1042 24.0013 89.8842 23.648C89.6642 23.288 89.2575 23.108 88.6642 23.108C88.1908 23.108 87.8342 23.298 87.5942 23.678C87.3608 24.0513 87.2442 24.5547 87.2442 25.188C87.2442 25.828 87.3608 26.3247 87.5942 26.678C87.8342 27.0313 88.1942 27.208 88.6742 27.208ZM97.4465 25.148C97.4465 26.0347 97.2199 26.7213 96.7665 27.208C96.3199 27.6947 95.7132 27.938 94.9465 27.938C94.4732 27.938 94.0499 27.8313 93.6765 27.618C93.3099 27.398 93.0199 27.0813 92.8065 26.668C92.5932 26.248 92.4865 25.7413 92.4865 25.148C92.4865 24.2613 92.7099 23.578 93.1565 23.098C93.6032 22.618 94.2099 22.378 94.9765 22.378C95.4632 22.378 95.8899 22.488 96.2565 22.708C96.6299 22.9213 96.9199 23.2347 97.1265 23.648C97.3399 24.0547 97.4465 24.5547 97.4465 25.148ZM93.3965 25.148C93.3965 25.7813 93.5199 26.2847 93.7665 26.658C94.0199 27.0247 94.4199 27.208 94.9665 27.208C95.5065 27.208 95.9032 27.0247 96.1565 26.658C96.4099 26.2847 96.5365 25.7813 96.5365 25.148C96.5365 24.5147 96.4099 24.018 96.1565 23.658C95.9032 23.298 95.5032 23.118 94.9565 23.118C94.4099 23.118 94.0132 23.298 93.7665 23.658C93.5199 24.018 93.3965 24.5147 93.3965 25.148ZM100.991 27.938C100.518 27.938 100.095 27.8413 99.7212 27.648C99.3545 27.4547 99.0645 27.1547 98.8512 26.748C98.6445 26.3413 98.5412 25.8213 98.5412 25.188C98.5412 24.528 98.6512 23.9913 98.8712 23.578C99.0912 23.1647 99.3879 22.8613 99.7612 22.668C100.141 22.4747 100.571 22.378 101.051 22.378C101.325 22.378 101.588 22.408 101.841 22.468C102.095 22.5213 102.301 22.588 102.461 22.668L102.191 23.398C102.031 23.338 101.845 23.2813 101.631 23.228C101.418 23.1747 101.218 23.148 101.031 23.148C99.9779 23.148 99.4512 23.8247 99.4512 25.178C99.4512 25.8247 99.5779 26.3213 99.8312 26.668C100.091 27.008 100.475 27.178 100.981 27.178C101.275 27.178 101.531 27.148 101.751 27.088C101.978 27.028 102.185 26.9547 102.371 26.868V27.648C102.191 27.7413 101.991 27.8113 101.771 27.858C101.558 27.9113 101.298 27.938 100.991 27.938ZM104.516 24.208C104.516 24.3147 104.509 24.4547 104.496 24.628C104.489 24.8013 104.483 24.9513 104.476 25.078H104.516C104.556 25.0247 104.616 24.948 104.696 24.848C104.776 24.748 104.856 24.648 104.936 24.548C105.023 24.4413 105.096 24.3547 105.156 24.288L106.866 22.478H107.896L105.726 24.768L108.046 27.838H106.986L105.126 25.338L104.516 25.868V27.838H103.646V20.238H104.516V24.208ZM109.868 22.088C109.868 22.3147 109.861 22.528 109.848 22.728C109.841 22.9213 109.831 23.0747 109.818 23.188H109.868C110.021 22.9613 110.231 22.7713 110.498 22.618C110.764 22.4647 111.108 22.388 111.528 22.388C112.194 22.388 112.728 22.6213 113.128 23.088C113.534 23.548 113.738 24.238 113.738 25.158C113.738 26.078 113.534 26.7713 113.128 27.238C112.721 27.7047 112.188 27.938 111.528 27.938C111.108 27.938 110.764 27.8613 110.498 27.708C110.231 27.5547 110.021 27.3713 109.868 27.158H109.798L109.618 27.838H108.988V20.238H109.868V22.088ZM111.378 23.118C110.811 23.118 110.418 23.2813 110.198 23.608C109.978 23.9347 109.868 24.4413 109.868 25.128V25.168C109.868 25.828 109.974 26.3347 110.188 26.688C110.408 27.0347 110.811 27.208 111.398 27.208C111.878 27.208 112.234 27.0313 112.468 26.678C112.708 26.3247 112.828 25.8147 112.828 25.148C112.828 23.7947 112.344 23.118 111.378 23.118ZM119.8 25.148C119.8 26.0347 119.573 26.7213 119.12 27.208C118.673 27.6947 118.067 27.938 117.3 27.938C116.827 27.938 116.403 27.8313 116.03 27.618C115.663 27.398 115.373 27.0813 115.16 26.668C114.947 26.248 114.84 25.7413 114.84 25.148C114.84 24.2613 115.063 23.578 115.51 23.098C115.957 22.618 116.563 22.378 117.33 22.378C117.817 22.378 118.243 22.488 118.61 22.708C118.983 22.9213 119.273 23.2347 119.48 23.648C119.693 24.0547 119.8 24.5547 119.8 25.148ZM115.75 25.148C115.75 25.7813 115.873 26.2847 116.12 26.658C116.373 27.0247 116.773 27.208 117.32 27.208C117.86 27.208 118.257 27.0247 118.51 26.658C118.763 26.2847 118.89 25.7813 118.89 25.148C118.89 24.5147 118.763 24.018 118.51 23.658C118.257 23.298 117.857 23.118 117.31 23.118C116.763 23.118 116.367 23.298 116.12 23.658C115.873 24.018 115.75 24.5147 115.75 25.148ZM122.269 25.098L120.419 22.478H121.419L122.799 24.498L124.169 22.478H125.159L123.309 25.098L125.259 27.838H124.259L122.799 25.698L121.319 27.838H120.329L122.269 25.098ZM130.982 29.418H128.742V20.698H130.982V21.418H129.602V28.698H130.982V29.418ZM133.923 24.648C133.683 24.5413 133.483 24.4713 133.323 24.438C133.17 24.398 133.02 24.378 132.873 24.378C132.687 24.378 132.49 24.4347 132.283 24.548C132.077 24.6613 131.893 24.8013 131.733 24.968V24.188C132.053 23.8347 132.453 23.658 132.933 23.658C133.127 23.658 133.317 23.678 133.503 23.718C133.697 23.758 133.947 23.8447 134.253 23.978C134.493 24.0847 134.69 24.158 134.843 24.198C135.003 24.2313 135.153 24.248 135.293 24.248C135.487 24.248 135.687 24.1913 135.893 24.078C136.1 23.9647 136.283 23.8247 136.443 23.658V24.428C136.117 24.788 135.717 24.968 135.243 24.968C135.057 24.968 134.863 24.948 134.663 24.908C134.47 24.8613 134.223 24.7747 133.923 24.648ZM137.206 28.698H138.586V21.418H137.206V20.698H139.446V29.418H137.206V28.698ZM146.977 27.838H146.097V20.238H146.977V27.838ZM152.165 26.358C152.165 26.878 151.972 27.2713 151.585 27.538C151.199 27.8047 150.679 27.938 150.025 27.938C149.652 27.938 149.329 27.908 149.055 27.848C148.789 27.788 148.552 27.7047 148.345 27.598V26.798C148.559 26.9047 148.815 27.0047 149.115 27.098C149.422 27.1847 149.732 27.228 150.045 27.228C150.492 27.228 150.815 27.158 151.015 27.018C151.215 26.8713 151.315 26.678 151.315 26.438C151.315 26.3047 151.279 26.1847 151.205 26.078C151.132 25.9713 150.999 25.8647 150.805 25.758C150.619 25.6513 150.349 25.5313 149.995 25.398C149.649 25.2647 149.352 25.1313 149.105 24.998C148.859 24.8647 148.669 24.7047 148.535 24.518C148.402 24.3313 148.335 24.0913 148.335 23.798C148.335 23.3447 148.519 22.9947 148.885 22.748C149.259 22.5013 149.745 22.378 150.345 22.378C150.672 22.378 150.975 22.4113 151.255 22.478C151.542 22.538 151.809 22.6247 152.055 22.738L151.755 23.438C151.529 23.3447 151.292 23.2647 151.045 23.198C150.799 23.1313 150.545 23.098 150.285 23.098C149.925 23.098 149.649 23.158 149.455 23.278C149.269 23.3913 149.175 23.548 149.175 23.748C149.175 23.8947 149.219 24.0213 149.305 24.128C149.392 24.228 149.535 24.328 149.735 24.428C149.942 24.5213 150.215 24.6347 150.555 24.768C150.895 24.8947 151.185 25.0247 151.425 25.158C151.665 25.2913 151.849 25.4547 151.975 25.648C152.102 25.8347 152.165 26.0713 152.165 26.358Z" fill="white"/>
<path d="M4 11C4 6.58172 7.58172 3 12 3H223C227.418 3 231 6.58172 231 11V12.568H4V11Z" fill="#C4C4C4"/>
<ellipse cx="10.8186" cy="7.91331" rx="1.98874" ry="1.81016" fill="#E12727"/>
<defs>
<filter id="filter0_d" x="0" y="0.258667" width="247" height="192.741" filterUnits="userSpaceOnUse" color-interpolation-filters="sRGB">
<feFlood flood-opacity="0" result="BackgroundImageFix"/>
<feColorMatrix in="SourceAlpha" type="matrix" values="0 0 0 0 0 0 0 0 0 0 0 0 0 0 0 0 0 0 127 0" result="hardAlpha"/>
<feOffset dx="6" dy="7"/>
<feGaussianBlur stdDeviation="5"/>
<feComposite in2="hardAlpha" operator="out"/>
<feColorMatrix type="matrix" values="0 0 0 0 0 0 0 0 0 0 0 0 0 0 0 0 0 0 0.35 0"/>
<feBlend mode="normal" in2="BackgroundImageFix" result="effect1_dropShadow"/>
<feBlend mode="normal" in="SourceGraphic" in2="effect1_dropShadow" result="shape"/>
</filter>
</defs>
</svg>
