<svg width="184" height="116" viewBox="0 0 184 116" fill="none" xmlns="http://www.w3.org/2000/svg">
<g filter="url(#filter0_d)">
<rect x="4" width="150" height="54" rx="14" fill="#366BD3"/>
</g>
<path d="M57.4044 33.1726C55.7404 33.1726 54.2364 32.8046 52.8924 32.0686C51.5644 31.3326 50.5164 30.3166 49.7484 29.0206C48.9964 27.7086 48.6204 26.2446 48.6204 24.6286C48.6204 23.0126 48.9964 21.5566 49.7484 20.2606C50.5164 18.9486 51.5724 17.9246 52.9164 17.1886C54.2604 16.4526 55.7644 16.0846 57.4284 16.0846C58.6764 16.0846 59.8284 16.2926 60.8844 16.7086C61.9404 17.1246 62.8364 17.7326 63.5724 18.5326L62.4444 19.6606C61.1324 18.3326 59.4764 17.6686 57.4764 17.6686C56.1484 17.6686 54.9404 17.9726 53.8524 18.5806C52.7644 19.1886 51.9084 20.0206 51.2844 21.0766C50.6764 22.1326 50.3724 23.3166 50.3724 24.6286C50.3724 25.9406 50.6764 27.1246 51.2844 28.1806C51.9084 29.2366 52.7644 30.0686 53.8524 30.6766C54.9404 31.2846 56.1484 31.5886 57.4764 31.5886C59.4924 31.5886 61.1484 30.9166 62.4444 29.5726L63.5724 30.7006C62.8364 31.5006 61.9324 32.1166 60.8604 32.5486C59.8044 32.9646 58.6524 33.1726 57.4044 33.1726ZM71.5959 33.1486C70.3799 33.1486 69.2839 32.8766 68.3079 32.3326C67.3319 31.7726 66.5639 31.0046 66.0039 30.0286C65.4439 29.0526 65.1639 27.9486 65.1639 26.7166C65.1639 25.4846 65.4439 24.3806 66.0039 23.4046C66.5639 22.4286 67.3319 21.6686 68.3079 21.1246C69.2839 20.5806 70.3799 20.3086 71.5959 20.3086C72.8119 20.3086 73.9079 20.5806 74.8839 21.1246C75.8599 21.6686 76.6199 22.4286 77.1639 23.4046C77.7239 24.3806 78.0039 25.4846 78.0039 26.7166C78.0039 27.9486 77.7239 29.0526 77.1639 30.0286C76.6199 31.0046 75.8599 31.7726 74.8839 32.3326C73.9079 32.8766 72.8119 33.1486 71.5959 33.1486ZM71.5959 31.6366C72.4919 31.6366 73.2919 31.4366 73.9959 31.0366C74.7159 30.6206 75.2759 30.0366 75.6759 29.2846C76.0759 28.5326 76.2759 27.6766 76.2759 26.7166C76.2759 25.7566 76.0759 24.9006 75.6759 24.1486C75.2759 23.3966 74.7159 22.8206 73.9959 22.4206C73.2919 22.0046 72.4919 21.7966 71.5959 21.7966C70.6999 21.7966 69.8919 22.0046 69.1719 22.4206C68.4679 22.8206 67.9079 23.3966 67.4919 24.1486C67.0919 24.9006 66.8919 25.7566 66.8919 26.7166C66.8919 27.6766 67.0919 28.5326 67.4919 29.2846C67.9079 30.0366 68.4679 30.6206 69.1719 31.0366C69.8919 31.4366 70.6999 31.6366 71.5959 31.6366ZM87.9868 20.3086C89.1708 20.3086 90.2428 20.5806 91.2028 21.1246C92.1628 21.6526 92.9148 22.4046 93.4588 23.3806C94.0028 24.3566 94.2748 25.4686 94.2748 26.7166C94.2748 27.9806 94.0028 29.1006 93.4588 30.0766C92.9148 31.0526 92.1628 31.8126 91.2028 32.3566C90.2588 32.8846 89.1868 33.1486 87.9868 33.1486C86.9628 33.1486 86.0348 32.9406 85.2028 32.5246C84.3868 32.0926 83.7148 31.4686 83.1868 30.6526V37.6846H81.4828V20.4046H83.1148V22.9006C83.6268 22.0686 84.2988 21.4286 85.1308 20.9806C85.9788 20.5326 86.9308 20.3086 87.9868 20.3086ZM87.8668 31.6366C88.7468 31.6366 89.5468 31.4366 90.2668 31.0366C90.9868 30.6206 91.5468 30.0366 91.9468 29.2846C92.3628 28.5326 92.5708 27.6766 92.5708 26.7166C92.5708 25.7566 92.3628 24.9086 91.9468 24.1726C91.5468 23.4206 90.9868 22.8366 90.2668 22.4206C89.5468 22.0046 88.7468 21.7966 87.8668 21.7966C86.9708 21.7966 86.1628 22.0046 85.4428 22.4206C84.7388 22.8366 84.1788 23.4206 83.7628 24.1726C83.3628 24.9086 83.1628 25.7566 83.1628 26.7166C83.1628 27.6766 83.3628 28.5326 83.7628 29.2846C84.1788 30.0366 84.7388 30.6206 85.4428 31.0366C86.1628 31.4366 86.9708 31.6366 87.8668 31.6366ZM109.124 20.4046V31.4926C109.124 33.6366 108.636 35.2206 107.66 36.2446C106.684 37.2846 105.212 37.8046 103.244 37.8046C102.14 37.8046 101.092 37.6286 100.1 37.2766C99.1244 36.9406 98.3324 36.4686 97.7244 35.8606L98.5884 34.5646C99.1324 35.1086 99.8044 35.5326 100.604 35.8366C101.404 36.1406 102.26 36.2926 103.172 36.2926C104.628 36.2926 105.7 35.9166 106.388 35.1646C107.076 34.4286 107.42 33.2766 107.42 31.7086V30.2446C106.972 30.9806 106.356 31.5486 105.572 31.9486C104.804 32.3486 103.932 32.5486 102.956 32.5486C101.308 32.5486 100.004 32.0926 99.0444 31.1806C98.1004 30.2526 97.6284 28.9006 97.6284 27.1246V20.4046H99.3324V26.9566C99.3324 28.2846 99.6604 29.2926 100.316 29.9806C100.972 30.6686 101.908 31.0126 103.124 31.0126C104.452 31.0126 105.5 30.6126 106.268 29.8126C107.036 28.9966 107.42 27.8686 107.42 26.4286V20.4046H109.124Z" fill="white"/>
<path d="M116.078 81.5626C115.094 80.3751 114.109 78.2969 112.141 75.6251C111.156 74.1407 108.203 71.1719 107.219 69.9844C106.562 68.7969 106.562 68.2032 106.891 67.0157C107.219 65.2344 109.187 63.7501 111.484 63.7501C113.125 63.7501 114.766 64.9376 116.078 65.8282C116.734 66.4219 117.719 67.6094 118.375 68.2032C119.031 68.7969 119.031 69.0938 119.687 69.6876C120.344 70.5782 120.672 71.1719 120.344 69.9844C120.016 68.5001 119.687 66.1251 119.031 63.7501C118.703 61.9688 118.375 61.6719 118.047 60.4844C117.719 59.0001 117.391 58.1094 117.062 56.6251C116.734 55.7344 116.406 53.3594 116.078 52.1719C115.75 50.6876 115.75 48.0157 117.062 46.8282C118.047 45.9376 120.016 45.6407 121.328 46.2344C122.969 47.1251 123.953 49.2032 124.281 50.0938C124.937 51.5782 125.594 53.6563 125.922 56.0313C126.578 59.0001 127.562 63.4532 127.562 64.3438C127.562 63.1563 127.234 61.0782 127.562 59.8907C127.891 59.0001 128.547 57.8126 129.859 57.5157C130.844 57.2188 131.828 57.2188 132.812 57.2188C133.797 57.5157 134.781 58.1094 135.437 58.7032C136.75 60.4844 136.75 64.3438 136.75 64.0469C137.078 62.8594 137.078 60.4844 137.734 59.2969C138.062 58.7032 139.375 58.1094 140.031 57.8126C141.016 57.5157 142.328 57.5157 143.312 57.8126C143.969 57.8126 145.281 58.7032 145.609 59.2969C146.266 60.1876 146.594 63.1563 146.922 64.3438C146.922 64.6407 147.25 63.1563 147.906 62.2657C149.219 60.4844 153.812 59.8907 154.141 64.0469C154.141 66.1251 154.141 65.8282 154.141 67.3126C154.141 68.7969 154.141 69.6876 154.141 70.8751C154.141 72.0626 153.812 74.7344 153.484 75.9219C153.156 76.8126 152.172 78.8907 151.187 80.0782C151.187 80.0782 147.578 83.6407 147.25 85.4219C146.922 87.2032 146.922 87.2032 146.922 88.3907C146.922 89.5782 147.25 91.0626 147.25 91.0626C147.25 91.0626 144.625 91.3594 143.312 91.0626C142 90.7657 140.359 88.6876 140.031 87.7969C139.375 86.9063 138.391 86.9063 137.734 87.7969C137.078 88.9844 135.437 91.0626 134.125 91.0626C131.828 91.3594 127.234 91.0626 123.953 91.0626C123.953 91.0626 124.609 88.0938 123.297 86.9063C122.312 86.0157 120.672 84.5313 119.687 83.6407L116.078 81.5626Z" fill="white"/>
<path d="M116.078 81.5626C115.094 80.3751 114.109 78.2969 112.141 75.6251C111.156 74.1407 108.203 71.1719 107.219 69.9844C106.562 68.7969 106.562 68.2032 106.891 67.0157C107.219 65.2344 109.187 63.7501 111.484 63.7501C113.125 63.7501 114.766 64.9376 116.078 65.8282C116.734 66.4219 117.719 67.6094 118.375 68.2032C119.031 68.7969 119.031 69.0938 119.687 69.6876C120.344 70.5782 120.672 71.1719 120.344 69.9844C120.016 68.5001 119.687 66.1251 119.031 63.7501C118.703 61.9688 118.375 61.6719 118.047 60.4844C117.719 59.0001 117.391 58.1094 117.062 56.6251C116.734 55.7344 116.406 53.3594 116.078 52.1719C115.75 50.6876 115.75 48.0157 117.062 46.8282C118.047 45.9376 120.016 45.6407 121.328 46.2344C122.969 47.1251 123.953 49.2032 124.281 50.0938C124.937 51.5782 125.594 53.6563 125.922 56.0313C126.578 59.0001 127.562 63.4532 127.562 64.3438C127.562 63.1563 127.234 61.0782 127.562 59.8907C127.891 59.0001 128.547 57.8126 129.859 57.5157C130.844 57.2188 131.828 57.2188 132.812 57.2188C133.797 57.5157 134.781 58.1094 135.437 58.7032C136.75 60.4844 136.75 64.3438 136.75 64.0469C137.078 62.8594 137.078 60.4844 137.734 59.2969C138.062 58.7032 139.375 58.1094 140.031 57.8126C141.016 57.5157 142.328 57.5157 143.312 57.8126C143.969 57.8126 145.281 58.7032 145.609 59.2969C146.266 60.1876 146.594 63.1563 146.922 64.3438C146.922 64.6407 147.25 63.1563 147.906 62.2657C149.219 60.4844 153.812 59.8907 154.141 64.0469C154.141 66.1251 154.141 65.8282 154.141 67.3126C154.141 68.7969 154.141 69.6876 154.141 70.8751C154.141 72.0626 153.812 74.7344 153.484 75.9219C153.156 76.8126 152.172 78.8907 151.187 80.0782C151.187 80.0782 147.578 83.6407 147.25 85.4219C146.922 87.2032 146.922 87.2032 146.922 88.3907C146.922 89.5782 147.25 91.0626 147.25 91.0626C147.25 91.0626 144.625 91.3594 143.312 91.0626C142 90.7657 140.359 88.6876 140.031 87.7969C139.375 86.9063 138.391 86.9063 137.734 87.7969C137.078 88.9844 135.437 91.0626 134.125 91.0626C131.828 91.3594 127.234 91.0626 123.953 91.0626C123.953 91.0626 124.609 88.0938 123.297 86.9063C122.312 86.0157 120.672 84.5313 119.687 83.6407L116.078 81.5626Z" stroke="black" stroke-width="0.75" stroke-linecap="round" stroke-linejoin="round"/>
<path d="M143.313 82.4533V72.3595" stroke="black" stroke-width="0.75" stroke-linecap="round"/>
<path d="M136.75 82.4533L136.422 72.3595" stroke="black" stroke-width="0.75" stroke-linecap="round"/>
<path d="M130.188 72.3595V82.4533" stroke="black" stroke-width="0.75" stroke-linecap="round"/>
<defs>
<filter id="filter0_d" x="0" y="0" width="158" height="62" filterUnits="userSpaceOnUse" color-interpolation-filters="sRGB">
<feFlood flood-opacity="0" result="BackgroundImageFix"/>
<feColorMatrix in="SourceAlpha" type="matrix" values="0 0 0 0 0 0 0 0 0 0 0 0 0 0 0 0 0 0 127 0" result="hardAlpha"/>
<feOffset dy="4"/>
<feGaussianBlur stdDeviation="2"/>
<feComposite in2="hardAlpha" operator="out"/>
<feColorMatrix type="matrix" values="0 0 0 0 0 0 0 0 0 0 0 0 0 0 0 0 0 0 0.25 0"/>
<feBlend mode="normal" in2="BackgroundImageFix" result="effect1_dropShadow"/>
<feBlend mode="normal" in="SourceGraphic" in2="effect1_dropShadow" result="shape"/>
</filter>
</defs>
</svg>
